<svg xmlns="http://www.w3.org/2000/svg" version="1.1" xmlns:xlink="http://www.w3.org/1999/xlink" xmlns:svgjs="http://svgjs.dev/svgjs" width="1500" height="1687" viewBox="0 0 1500 1687"><g transform="matrix(1,0,0,1,0.0009843749999163265,0)"><svg viewBox="0 0 320 360" data-background-color="#990708" preserveAspectRatio="xMidYMid meet" height="1687" width="1500" xmlns="http://www.w3.org/2000/svg" xmlns:xlink="http://www.w3.org/1999/xlink"><g id="tight-bounds" transform="matrix(1,0,0,1,-0.00020999999998139174,0)"><svg viewBox="0 0 320 360" height="360" width="320"><g><svg></svg></g><g><svg viewBox="0 0 320 360" height="360" width="320"><g><path transform="translate(-17.77778,2.22222) scale(3.55556,3.55556)" d="M95 52c0-12.871-5.692-24.431-14.682-32.318-7.887-8.99-19.447-14.682-32.318-14.682-23.71 0-43 19.29-43 43 0 12.868 5.69 24.426 14.677 32.313 7.887 8.993 19.449 14.687 32.323 14.687 0.084 0 0.166-0.006 0.25-0.006 0.084 0 0.166 0.006 0.25 0.006 23.472 0 42.5-19.028 42.5-42.5 0-0.084-0.006-0.166-0.006-0.25 0-0.084 0.006-0.166 0.006-0.25zM21.828 73.371c-4.245-5.978-6.77-13.259-6.822-21.121 0.135-20.511 16.732-37.109 37.244-37.244 7.862 0.052 15.144 2.577 21.121 6.822 6.853 6.645 11.129 15.93 11.129 26.172 0 20.126-16.374 36.5-36.5 36.5-10.242 0-19.527-4.276-26.172-11.129zM6 48c0-23.159 18.841-42 42-42 9.858 0 18.926 3.422 26.1 9.13-6.463-3.888-14.024-6.13-22.1-6.13-23.71 0-43 19.29-43 43 0 8.074 2.241 15.633 6.127 22.095-5.706-7.172-9.127-16.239-9.127-26.095zM52 89c-10.08 0-19.227-4.055-25.905-10.615 6.174 4.469 13.743 7.115 21.905 7.115 20.678 0 37.5-16.822 37.5-37.5 0-8.162-2.646-15.731-7.115-21.905 6.56 6.678 10.615 15.825 10.615 25.905 0 20.402-16.598 37-37 37z" fill="#ef9394" fill-rule="nonzero" stroke="none" stroke-width="1" stroke-linecap="butt" stroke-linejoin="miter" stroke-miterlimit="10" stroke-dasharray="" stroke-dashoffset="0" font-family="none" font-weight="none" font-size="none" text-anchor="none" style="mix-blend-mode: normal" data-fill-palette-color="tertiary"></path></g><g transform="matrix(1,0,0,1,64,142.93713431828482)"><svg viewBox="0 0 192 74.12573136343036" height="74.12573136343036" width="192"><g><svg viewBox="0 0 192 74.12573136343036" height="74.12573136343036" width="192"><g><svg viewBox="0 0 192 74.12573136343036" height="74.12573136343036" width="192"><g transform="matrix(1,0,0,1,0,45.81267575945616)"><svg viewBox="0 0 192 28.313055603974203" height="28.313055603974203" width="192"><g id="textblocktransform"><svg viewBox="0 0 192 28.313055603974203" height="28.313055603974203" width="192" id="textblock"><g><svg viewBox="0 0 192 28.313055603974203" height="28.313055603974203" width="192"><g transform="matrix(1,0,0,1,0,0)"><svg width="192" viewBox="-1.2 -40.8 286.82 42.3" height="28.313055603974203" data-palette-color="#ef9394"><path d="M19.95-6.1L19.95-6.1 20-6.1Q20.6-8.45 21.95-12.25L21.95-12.25 31.05-37.6 27-38.1Q26.8-38.85 27-39.95L27-39.95Q29.75-39.75 32.3-39.75L32.3-39.75Q34.5-39.75 37.7-39.9L37.7-39.9Q38-39 37.7-38.1L37.7-38.1 34.4-37.5Q33.6-36.3 32.4-33.05L32.4-33.05 19.5 1.5 17.75 1.5 2.95-37.6-1.1-38.1Q-1.3-38.85-1.1-39.95L-1.1-39.95Q1.65-39.75 6-39.75L6-39.75Q9.9-39.75 13.15-39.9L13.15-39.9Q13.45-39 13.15-38.1L13.15-38.1 9-37.5 18.15-12.25Q19.2-9.2 19.95-6.1ZM47.65-18.6L47.65-18.6 47.65-2.55 51.7-1.8Q51.75-1.55 51.77-1.35 51.8-1.15 51.8-0.9L51.8-0.9Q51.8-0.65 51.77-0.38 51.75-0.1 51.7 0.2L51.7 0.2Q48.55 0.05 45.25 0.05L45.25 0.05Q44.1 0.05 42.47 0.08 40.85 0.1 38.75 0.15L38.75 0.15Q38.6-0.3 38.6-0.8L38.6-0.8Q38.6-1.25 38.75-1.8L38.75-1.8 42.7-2.35Q42.8-3.75 42.85-5.33 42.9-6.9 42.9-8.7L42.9-8.7 42.9-19.35Q42.9-22.65 42.75-24.25L42.75-24.25 38.8-24.75Q38.7-25 38.7-25.6L38.7-25.6Q38.7-25.85 38.7-26.1 38.7-26.35 38.8-26.65L38.8-26.65Q42.2-26.85 47.4-27.7L47.4-27.7Q47.85-27.2 47.9-26.7L47.9-26.7Q47.65-25.3 47.65-18.6ZM40.35-36.45L40.35-36.45Q40.25-36.7 40.25-36.98 40.25-37.25 40.25-37.5L40.25-37.5Q40.25-38.85 41.37-39.68 42.5-40.5 44.15-40.5L44.15-40.5Q45.7-40.5 46.67-39.58 47.65-38.65 47.65-37.05L47.65-37.05Q47.65-35.75 46.52-34.95 45.4-34.15 43.65-34.15L43.65-34.15Q42.45-34.15 41.52-34.75 40.6-35.35 40.35-36.45ZM79.05-31.7L79.05-7.1Q79.05-3.75 79.2-2.4L79.2-2.4 83.15-1.9Q83.3-1.1 83.15 0L83.15 0Q79.5 0.15 75.55 0.7L75.55 0.7Q75.2 0.35 75.05-0.25L75.05-0.25 74.8-3.45Q73.05-1.4 70.45-0.18 67.84 1.05 65 1.05L65 1.05Q60.65 1.05 57.8-2.58 54.95-6.2 54.95-12.25L54.95-12.25Q54.95-19.25 58.67-23.48 62.4-27.7 67.59-27.7L67.59-27.7Q71.7-27.7 74.3-25.75L74.3-25.75 74.3-32.45Q74.3-35.75 74.15-37.35L74.15-37.35 70.2-37.85Q70-38.6 70.2-39.75L70.2-39.75Q73.65-40 78.8-40.8L78.8-40.8Q79.25-40.3 79.3-39.8L79.3-39.8Q79.05-38.5 79.05-31.7L79.05-31.7ZM67.2-25L67.2-25Q63.95-25 62-21.58 60.05-18.15 60.05-12.1L60.05-12.1Q60.05-7.15 61.87-4.55 63.7-1.95 66.7-1.95L66.7-1.95Q68.5-1.95 70.65-3.08 72.8-4.2 74.3-6.2L74.3-6.2 74.3-22.2Q71.84-25 67.2-25ZM107.04-14.1L107.04-14.1 91.34-14.1Q90.89-1.35 98.99-1.35L98.99-1.35Q102.44-1.35 106.04-4.4L106.04-4.4Q106.79-3.95 107.19-2.85L107.19-2.85Q103.74 1 98.44 1L98.44 1Q86.24 1 86.24-13.35L86.24-13.35Q86.24-20.15 89.84-23.93 93.44-27.7 98.24-27.7L98.24-27.7Q103.49-27.7 105.79-24.05 108.09-20.4 108.09-14.55L108.09-14.55Q107.59-14.15 107.04-14.1ZM98.14-25.7L98.14-25.7Q95.54-25.7 93.72-23 91.89-20.3 91.49-16.1L91.49-16.1 97.69-16.1Q101.39-16.1 102.99-16.55L102.99-16.55Q102.99-20.65 101.74-23.18 100.49-25.7 98.14-25.7ZM112.39-13.3L112.39-13.3Q112.39-16.3 113.27-18.93 114.14-21.55 115.79-23.5 117.44-25.45 119.77-26.58 122.09-27.7 124.99-27.7L124.99-27.7Q127.84-27.7 130.19-26.58 132.54-25.45 134.22-23.5 135.89-21.55 136.79-18.93 137.69-16.3 137.69-13.3L137.69-13.3Q137.69-10.2 136.77-7.6 135.84-5 134.17-3.08 132.49-1.15 130.14-0.08 127.79 1 124.99 1L124.99 1Q122.04 1 119.72-0.05 117.39-1.1 115.77-3 114.14-4.9 113.27-7.53 112.39-10.15 112.39-13.3ZM119.69-22.5L119.69-22.5Q117.54-19.45 117.54-13.3L117.54-13.3Q117.54-10.25 118.12-7.95 118.69-5.65 119.69-4.13 120.69-2.6 122.04-1.85 123.39-1.1 124.99-1.1L124.99-1.1Q126.54-1.1 127.94-1.85 129.34-2.6 130.34-4.13 131.34-5.65 131.94-7.95 132.54-10.25 132.54-13.3L132.54-13.3Q132.54-16.35 131.94-18.68 131.34-21 130.31-22.53 129.29-24.05 127.92-24.83 126.54-25.6 124.99-25.6L124.99-25.6Q121.89-25.6 119.69-22.5ZM136.29-28.2L136.34-39.8 170.89-39.8 170.94-28.2Q169.84-28 169.09-28.2L169.09-28.2 166.74-37.25 156.34-37.25 156.34-2.2 161.39-1.7Q161.59-0.95 161.39 0.15L161.39 0.15Q158.24 0 153.79 0L153.79 0Q150.34 0 146.14 0.1L146.14 0.1Q145.84-0.8 146.14-1.7L146.14-1.7 150.79-2.3Q150.99-4.2 150.99-8.15L150.99-8.15 150.99-37.25 140.49-37.25 138.14-28.2Q137.39-28 136.29-28.2L136.29-28.2ZM175.24-6.65L175.24-6.65Q175.24-4.05 176.19-2.98 177.14-1.9 179.19-1.9L179.19-1.9Q180.69-1.9 182.51-2.83 184.34-3.75 185.89-5.5L185.89-5.5 185.89-13.3Q180.74-13 177.99-11.48 175.24-9.95 175.24-6.65ZM185.89-15.1L185.89-15.1 185.89-17.65Q185.89-21.9 184.91-23.83 183.94-25.75 181.69-25.75L181.69-25.75Q179.39-25.75 177.99-24.28 176.59-22.8 176.09-19.25L176.09-19.25Q174.49-18.9 173.74-18.9L173.74-18.9Q171.79-18.9 171.44-20.3L171.44-20.3Q171.44-23.7 174.39-25.7 177.34-27.7 181.74-27.7L181.74-27.7Q186.59-27.7 188.61-25.73 190.64-23.75 190.64-18.65L190.64-18.65 190.64-4.55Q190.64-3.3 190.79-2.4L190.79-2.4 194.74-1.9Q194.94-1.15 194.74 0L194.74 0Q191.19 0.15 187.19 0.7L187.19 0.7Q186.79 0.3 186.69-0.3L186.69-0.3 186.44-3.75Q182.29 1 177.19 1L177.19 1Q174.04 1 172.26-0.8 170.49-2.6 170.49-5.65L170.49-5.65Q170.49-10.25 174.66-12.6 178.84-14.95 185.89-15.1ZM205.03-31.7L205.03-31.7 205.03-2.55 209.08-1.8Q209.28-1 209.08 0.2L209.08 0.2Q205.93 0.05 202.63 0.05L202.63 0.05Q200.33 0.05 196.13 0.15L196.13 0.15Q195.83-0.8 196.13-1.8L196.13-1.8 200.08-2.35Q200.28-5.1 200.28-8.7L200.28-8.7 200.28-37.35 196.18-37.85Q195.98-38.6 196.18-39.75L196.18-39.75Q199.63-40 204.78-40.8L204.78-40.8Q205.23-40.3 205.28-39.8L205.28-39.8Q205.03-38.5 205.03-31.7ZM230.63-2.3L220.48-14.4 230.93-24.5 227.63-24.9Q227.43-25.7 227.63-26.85L227.63-26.85Q230.38-26.65 232.78-26.65L232.78-26.65Q234.73-26.65 237.98-26.8L237.98-26.8Q238.28-25.9 237.98-24.9L237.98-24.9 234.03-24.2 225.18-15.9 236.08-2.85 239.98-1.85Q240.18-1.05 239.98 0.15L239.98 0.15Q236.83 0 233.68 0L233.68 0Q231.53 0 227.33 0.1L227.33 0.1Q227.03-0.9 227.33-1.85L227.33-1.85 230.63-2.3ZM219.93-31.7L219.93-31.7 219.93-2.55 223.98-1.8Q224.18-1 223.98 0.2L223.98 0.2Q220.83 0.05 217.58 0.05L217.58 0.05Q215.28 0.05 211.08 0.15L211.08 0.15Q210.78-0.8 211.08-1.8L211.08-1.8 215.03-2.35Q215.23-5.1 215.23-8.7L215.23-8.7 215.23-37.35 211.13-37.85Q210.93-38.6 211.13-39.75L211.13-39.75Q214.48-40 219.68-40.8L219.68-40.8Q220.13-40.3 220.18-39.8L220.18-39.8Q219.93-38.5 219.93-31.7ZM261.03-14.1L261.03-14.1 245.33-14.1Q244.88-1.35 252.98-1.35L252.98-1.35Q256.43-1.35 260.03-4.4L260.03-4.4Q260.78-3.95 261.18-2.85L261.18-2.85Q257.73 1 252.43 1L252.43 1Q240.23 1 240.23-13.35L240.23-13.35Q240.23-20.15 243.83-23.93 247.43-27.7 252.23-27.7L252.23-27.7Q257.48-27.7 259.78-24.05 262.08-20.4 262.08-14.55L262.08-14.55Q261.58-14.15 261.03-14.1ZM252.13-25.7L252.13-25.7Q249.53-25.7 247.7-23 245.88-20.3 245.48-16.1L245.48-16.1 251.68-16.1Q255.38-16.1 256.98-16.55L256.98-16.55Q256.98-20.65 255.73-23.18 254.48-25.7 252.13-25.7ZM274.87-26.7L274.87-26.7 274.77-21.55Q276.02-23.85 278.25-25.78 280.47-27.7 282.47-27.7L282.47-27.7Q284.02-27.7 285.22-27.35L285.22-27.35Q285.62-26.7 285.62-25.65L285.62-25.65Q285.62-24 284.92-22.35L284.92-22.35Q283.12-22.85 281.47-22.85L281.47-22.85Q277.37-22.85 274.72-18.85L274.72-18.85 274.62-10.1 274.62-2.55 280.17-1.8Q280.37-1 280.17 0.2L280.17 0.2Q277.02 0.05 272.97 0.05L272.97 0.05Q269.92 0.05 265.72 0.15L265.72 0.15Q265.42-0.8 265.72-1.8L265.72-1.8 269.67-2.35Q269.87-5.1 269.87-8.7L269.87-8.7 269.87-22.4Q269.87-23.4 269.72-24.25L269.72-24.25 265.77-24.75Q265.57-25.5 265.77-26.65L265.77-26.65Q269.22-26.9 274.37-27.7L274.37-27.7Q274.82-27.2 274.87-26.7Z" opacity="1" transform="matrix(1,0,0,1,0,0)" fill="#ef9394" class="wordmark-text-0" data-fill-palette-color="primary" id="text-0"></path></svg></g></svg></g></svg></g></svg></g><g transform="matrix(1,0,0,1,67.79085708516646,0)"><svg viewBox="0 0 56.41828582966708 39.12864284469235" height="39.12864284469235" width="56.41828582966708"><g><svg xmlns="http://www.w3.org/2000/svg" xmlns:xlink="http://www.w3.org/1999/xlink" version="1.1" x="0" y="0" viewBox="6.744 20 86.512 60" enable-background="new 0 0 100 100" xml:space="preserve" height="39.12864284469235" width="56.41828582966708" class="icon-icon-0" data-fill-palette-color="accent" id="icon-0"><g fill="#f3f2ee" data-fill-palette-color="accent"><g fill="#f3f2ee" data-fill-palette-color="accent"><path d="M39 67.964c-0.486 0-0.974-0.118-1.418-0.356C36.608 67.085 36 66.069 36 64.964V35.036c0-1.105 0.608-2.121 1.582-2.644 0.975-0.522 2.157-0.468 3.078 0.145l22.527 14.965c0.837 0.557 1.34 1.494 1.34 2.499s-0.503 1.943-1.34 2.499L40.66 67.463C40.159 67.796 39.58 67.964 39 67.964zM42 40.631V59.37l14.105-9.369L42 40.631z" fill="#f3f2ee" data-fill-palette-color="accent"></path></g><g fill="#f3f2ee" data-fill-palette-color="accent"><path d="M81.83 80H18.169c-7.85 0-11.425-16.058-11.425-30.977C6.744 21.399 16.261 20 18.169 20H81.83c1.908 0 11.426 1.399 11.426 29.023C93.256 63.942 89.681 80 81.83 80zM18.428 74h63.145c1.36-0.807 5.684-6.811 5.684-24.977 0-17.831-4.286-22.657-5.503-23.023H18.247c-1.218 0.367-5.503 5.194-5.503 23.023C12.744 67.188 17.066 73.192 18.428 74z" fill="#f3f2ee" data-fill-palette-color="accent"></path></g></g></svg></g></svg></g><g></g></svg></g></svg></g></svg></g></svg></g><defs></defs></svg><rect width="320" height="360" fill="none" stroke="none" visibility="hidden"></rect></g></svg></g></svg>